<?xml version="1.0" encoding="UTF-8"?>
<svg id="Layer_2" xmlns="http://www.w3.org/2000/svg" viewBox="0 0 1535.91 229.89">
  <defs>
    <style>
      .cls-1 {
        fill: #fff;
      }
    </style>
  </defs>
  <g id="Layer_1-2" data-name="Layer_1">
    <g>
      <path class="cls-1" d="M0,150.69h27.12c3.7,37.29,26.5,56.7,68.11,56.7,30.51,0,52.39-13.87,52.39-41.29,0-30.2-26.5-37.29-65.95-45.92C42.84,111.56,9.55,100.46,9.55,58.86,9.55,22.5,39.75.62,84.44.62c55.16,0,77.97,28.04,83.51,68.72h-26.19c-4.01-31.43-24.35-47.15-56.7-47.15-29.89,0-49.62,12.63-49.62,35.44,0,24.96,24.65,32.36,57.63,38.83,42.84,8.63,81.97,19.11,81.97,68.72,0,41.29-33.59,64.41-81.05,64.41C32.05,229.58,2.47,195.07,0,150.69Z"/>
      <path class="cls-1" d="M198.46,114.95C198.46,49,239.75,0,306.32,0s107.86,49,107.86,114.95-41.29,114.95-107.86,114.95-107.86-49-107.86-114.95ZM385.82,114.95c0-51.77-27.74-90.91-79.51-90.91s-79.51,39.14-79.51,90.91,27.74,90.6,79.51,90.6,79.51-38.83,79.51-90.6Z"/>
      <path class="cls-1" d="M443.45,154.08V4.93h27.73v146.38c0,37.6,21.26,53.62,57.63,53.62s55.78-16.02,55.78-53.62V4.93h27.73v149.15c0,53.31-37.29,74.58-84.44,74.58s-84.44-21.26-84.44-74.58Z"/>
      <path class="cls-1" d="M649.93,4.93h29.28l100.46,153.16c7.4,11.4,16.02,28.35,16.02,28.35h.62V4.93h25.89v220.34h-28.35l-101.08-153.47c-7.09-10.79-16.33-27.43-16.33-27.43h-.62v180.89h-25.89V4.93Z"/>
      <path class="cls-1" d="M863.49,4.93h80.12c66.26,0,97.69,44.99,97.69,110.94s-33.59,109.4-99.85,109.4h-77.97V4.93ZM940.53,200.92c51.77,0,72.42-33.28,72.42-85.05s-18.49-86.9-70.26-86.9h-51.46v171.96h49.31Z"/>
      <path class="cls-1" d="M1114.95,114.95c0-65.95,41.29-114.95,107.86-114.95s107.86,49,107.86,114.95-41.29,114.95-107.86,114.95-107.86-49-107.86-114.95ZM1302.31,114.95c0-51.77-27.73-90.91-79.51-90.91s-79.51,39.14-79.51,90.91,27.74,90.6,79.51,90.6,79.51-38.83,79.51-90.6Z"/>
      <path class="cls-1" d="M1363.64,4.93h29.28l100.46,153.16c7.4,11.4,16.02,28.35,16.02,28.35h.62V4.93h25.89v220.34h-28.35l-101.08-153.47c-7.09-10.79-16.33-27.43-16.33-27.43h-.62v180.89h-25.89V4.93Z"/>
    </g>
  </g>
</svg>