<?xml version="1.0" encoding="UTF-8"?>
<svg id="Layer_2" data-name="Layer 2" xmlns="http://www.w3.org/2000/svg" viewBox="0 0 477.05 445.1">
  <defs>
    <style>
      .cls-1 {
        fill: #000;
        stroke-width: 0px;
      }
    </style>
  </defs>
  <g id="Layer_1-2" data-name="Layer 1">
    <g>
      <polygon class="cls-1" points="252.57 297.64 274.09 297.64 300.09 150.19 278.57 150.19 252.57 297.64"/>
      <path class="cls-1" d="M341.07,297.64h25.46l26-147.45h-21.51l-17.14,97.2-13.65-97.2h-24.36l-26,147.45h4.19l-26,147.45h35.87c8.4,0,15.82-2.25,22.06-6.67,6.01-4.27,11.2-9.95,15.42-16.89,4.12-6.77,7.53-14.58,10.13-23.21,2.55-8.46,4.65-17.3,6.23-26.29,1.71-9.72,2.92-19,3.6-27.59.69-8.85.18-16.74-1.51-23.46-1.8-7.12-5.33-12.84-10.48-17.01h0c-5.2-4.2-12.67-6.33-22.18-6.33h-15.8l16.52-93.69,13.18,93.69ZM311.74,319.35h11.22c5.1,0,8.81,1.25,11,3.72,2.45,2.76,4.04,6.44,4.71,10.96.74,4.93.75,10.63.03,16.93-.75,6.6-1.73,13.31-2.9,19.94-1.08,6.14-2.47,12.54-4.13,19.01-1.6,6.28-3.75,12.04-6.38,17.11-2.53,4.88-5.69,8.94-9.4,12.06-3.44,2.89-7.57,4.3-12.64,4.3h-9.88l18.34-104.03Z"/>
      <path class="cls-1" d="M476.98,178.6h0c-.15-3.3-.65-6.74-1.48-10.22-.9-3.74-2.51-7.2-4.79-10.29-2.34-3.15-5.52-5.74-9.45-7.7-3.93-1.95-8.91-2.94-14.8-2.94-8.56,0-16,2.41-22.11,7.17-5.83,4.55-10.85,10.57-14.91,17.91-3.96,7.15-7.21,15.31-9.64,24.25-2.39,8.74-4.38,17.65-5.94,26.49-1.68,9.5-2.88,18.78-3.59,27.58-.73,9.05-.43,17.2.9,24.22,1.4,7.42,4.27,13.49,8.53,18.05,4.51,4.83,11.04,7.28,19.42,7.28,7.06,0,13.52-2.45,19.18-7.28.83-.71,1.63-1.44,2.4-2.19l-1.19,6.72h18.07l14.15-80.27h-42.35l-3.83,21.71h22.04c-.67,3.32-1.45,6.86-2.35,10.57-1.27,5.22-2.96,10.12-5.03,14.57-1.98,4.26-4.47,7.87-7.41,10.73-2.57,2.5-5.66,3.72-9.47,3.72-3.56,0-6.04-1-7.57-3.07-1.86-2.5-3.06-6.1-3.56-10.68-.55-4.98-.45-10.96.3-17.77.77-7,1.88-14.59,3.28-22.57,1.4-7.97,2.98-15.57,4.68-22.58,1.66-6.85,3.68-12.87,6.01-17.91,2.22-4.8,4.85-8.61,7.82-11.32,2.66-2.43,5.83-3.61,9.69-3.61,2.6,0,4.6.51,5.96,1.51,1.46,1.08,2.52,2.49,3.23,4.3.81,2.06,1.26,4.56,1.34,7.43.09,3.12-.08,6.46-.49,9.93l-.51,4.25h21.89l.56-3.14c.22-1.26.48-3.16.78-5.81.31-2.73.4-5.77.25-9.03Z"/>
      <path class="cls-1" d="M106.74,297.64l10.43-59.15h13.89c5.17,0,10.19-.99,14.92-2.93,4.72-1.94,9.05-4.86,12.88-8.65,3.77-3.74,7.01-8.37,9.64-13.76,2.6-5.32,4.53-11.49,5.74-18.34,1.23-6.97,1.61-12.98,1.13-17.88-.49-5.01-1.61-9.28-3.32-12.7-1.78-3.54-4.08-6.34-6.85-8.34-2.61-1.87-5.37-3.24-8.2-4.08-2.08-.61-4.15-1.03-6.19-1.26,1.7-.66,3.34-1.43,4.9-2.36,5.14-3.05,9.64-7.18,13.38-12.29,3.61-4.94,6.71-10.66,9.2-17.02,2.44-6.23,4.44-12.84,5.96-19.65l1.04-4.63h-22.28l-.61,3.05c-.85,4.21-1.88,8.46-3.07,12.63-1.14,3.99-2.66,7.66-4.53,10.9-1.77,3.07-3.93,5.6-6.41,7.5-2.24,1.71-4.95,2.54-8.3,2.54-3.56,0-6.04-1-7.57-3.07-1.86-2.5-3.06-6.1-3.56-10.68-.55-4.97-.45-10.95.3-17.77.77-7,1.88-14.59,3.28-22.57,1.41-7.99,2.98-15.59,4.68-22.58,1.66-6.85,3.68-12.87,6.01-17.91,2.22-4.8,4.85-8.61,7.82-11.32,2.66-2.43,5.83-3.61,9.69-3.61,2.69,0,4.76.53,6.15,1.58,1.47,1.11,2.53,2.61,3.22,4.59.79,2.26,1.19,5,1.19,8.14,0,3.39-.29,6.99-.85,10.7l-.65,4.37h22.1l.5-3.23c2.22-14.44,1.23-25.98-2.94-34.3-4.51-9-13.33-13.56-26.22-13.56-8.56,0-16,2.41-22.11,7.17-5.84,4.55-10.85,10.57-14.91,17.91-3.96,7.16-7.21,15.32-9.64,24.25-2.39,8.74-4.38,17.65-5.94,26.49-1.58,8.97-2.76,17.91-3.49,26.58-.76,8.92-.47,17.1.87,24.33,1.42,7.62,4.42,13.9,8.91,18.66,1.9,2.01,4.17,3.6,6.77,4.81h-12.44l-26,147.45h-31.16c4.12-1.48,8.08-3.73,11.78-6.72,4.24-3.41,8.07-8.06,11.38-13.79,3.29-5.71,5.72-12.92,7.22-21.41,1.63-9.23,1.44-16.41-.57-21.95-2-5.48-5.03-9.86-8.99-13.02-3.72-2.97-7.94-5.37-12.55-7.14-4.04-1.55-7.79-3.33-11.14-5.31-2.99-1.76-5.25-4.05-6.92-7.01-1.53-2.72-1.81-6.94-.82-12.55,1.17-6.61,3.44-11.62,6.77-14.89,3.2-3.15,7.12-4.69,11.98-4.69,2.51,0,4.5.44,5.91,1.3,1.38.85,2.37,1.96,3.03,3.42.75,1.66,1.15,3.79,1.18,6.3.03,2.82-.26,5.98-.86,9.39l-.79,4.46h21.57l.51-3.2c2.24-13.95,1.23-24.32-3.08-31.7-2.35-4.02-5.78-6.99-10.21-8.94h18.3L92.05,2.74h-24.71L7.31,150.19h22.66l15.07-38.39h29.45l1.18,37.06c-3.28-.91-6.97-1.41-11.13-1.41-7.75,0-14.4,1.59-19.75,4.73-5.19,3.05-9.51,6.84-12.87,11.27-3.3,4.36-5.79,8.96-7.41,13.69-1.56,4.54-2.66,8.59-3.27,12.03-1.2,6.8-1.39,12.65-.56,17.37.84,4.84,2.42,8.94,4.7,12.19,2.25,3.23,5.07,5.89,8.38,7.92,2.98,1.83,6.08,3.51,9.23,4.99,3.05,1.44,6.04,2.85,9,4.22,2.5,1.16,4.65,2.67,6.39,4.48,1.67,1.74,2.87,3.83,3.66,6.41.78,2.54.79,6.03.02,10.37-.6,3.4-1.59,6.47-2.93,9.13-1.34,2.64-2.95,4.93-4.77,6.8-1.76,1.8-3.75,3.21-5.91,4.18-2.13.96-4.24,1.43-6.43,1.43-4.08,0-7.17-.71-8.95-2.06-1.8-1.37-2.96-3.16-3.56-5.46-.69-2.69-.88-5.77-.56-9.17.36-3.74.88-7.56,1.55-11.35l.79-4.47H9.79l-.55,3.14c-1.35,7.64-1.99,14.56-1.92,20.59.08,6.34,1.18,11.79,3.28,16.18,2.22,4.66,5.72,8.27,10.41,10.74,1.45.76,3.06,1.39,4.8,1.91L0,445.1h21.51l11.54-65.42h41.52l4.03-22.88h-41.52l6.4-36.27h44.03l4.03-22.88h9.35l-26,147.45h21.51l26-147.45h-15.66ZM128.92,171.9h12.32c7.14,0,9.27,2.69,10.26,4.71,1.85,3.82,2.18,9.23.97,16.09-1.49,8.44-4.2,14.68-8.05,18.54-3.73,3.73-7.49,5.55-11.49,5.55h-11.92l7.92-44.89ZM53.41,90.1l18.88-46.52,1.61,46.52h-20.5Z"/>
      <path class="cls-1" d="M237.57,297.64h7.7s-3.75-6.81-3.73-16.04c0-2.31.38-5.38.95-9.19l3.28-23.94c.82-6.65.16-12.58-1.98-17.62-1.12-2.65-2.71-4.81-4.7-6.45,1-.69,1.95-1.45,2.86-2.29,2.87-2.65,5.4-5.76,7.49-9.26,2.06-3.43,3.78-7.22,5.1-11.25,1.29-3.94,2.3-7.94,3-11.88,2.12-12.03.88-21.66-3.69-28.61-4.77-7.24-12.36-10.92-22.55-10.92h27.28c8.39,0,15.82-2.25,22.06-6.67,6.01-4.27,11.2-9.95,15.42-16.89,4.12-6.77,7.53-14.58,10.13-23.21,2.55-8.48,4.65-17.32,6.23-26.29,1.71-9.72,2.92-19,3.6-27.59.69-8.85.18-16.74-1.51-23.46-1.8-7.12-5.33-12.84-10.49-17.01-5.2-4.2-12.67-6.33-22.18-6.33h-33.12l-26,147.45h-15.5L233.23,2.74h-21.51l-26,147.45h6.21l-26,147.45h-29.43l-26,147.45h67.42l4.03-22.88h-45.91l7.5-42.53h41.52l4.03-22.88h-41.52l6.4-36.27h44.03l4.03-22.88h-14.6l10.98-62.28h15.45c1.52,0,3.08.15,4.63.43,1,.18,1.82.65,2.6,1.45.82.85,1.5,2.34,1.96,4.29.52,2.24.54,5.6.06,9.9l-2.9,21.81c-.2,1.72-.4,3.6-.6,5.64-.21,2.13-.33,4.25-.37,6.28-.03,2.11.03,4.01.2,5.63.21,2.1.71,3.76,1.52,5.06l1.12,1.79h-6.03l-26,147.45h66.95l4.03-22.88h-45.44l21.96-124.57ZM266.41,24.45h11.22c5.11,0,8.81,1.25,11.01,3.72,2.45,2.76,4.04,6.44,4.71,10.96.74,4.93.75,10.63.03,16.93-.75,6.57-1.72,13.28-2.9,19.94-1.08,6.14-2.47,12.53-4.13,19.01-1.6,6.28-3.75,12.04-6.38,17.11-2.53,4.88-5.69,8.94-9.4,12.06-3.43,2.89-7.57,4.3-12.64,4.3h-9.88l18.34-104.03ZM218.02,213.28c-2.56.25-4.8.37-6.67.37h-9.1l7.36-41.75h13.26c5.2,0,8.74,1.43,10.8,4.36,2.18,3.11,2.76,7.65,1.73,13.51-1.11,6.28-2.68,11.1-4.68,14.32-1.95,3.15-4.05,5.44-6.24,6.81-2.19,1.37-4.36,2.17-6.46,2.37Z"/>
    </g>
  </g>
</svg>